<svg xmlns="http://www.w3.org/2000/svg" xmlns:xlink="http://www.w3.org/1999/xlink" width="500" zoomAndPan="magnify" viewBox="0 0 375 374.999991" height="500" preserveAspectRatio="xMidYMid meet" version="1.0"><defs><g/></defs><g fill="#ffffff" fill-opacity="1"><g transform="translate(61.359375, 219.374986)"><g><path d="M 31.3125 -16.921875 L 46.78125 -68.25 L 62.4375 -68.25 L 38.671875 0 L 24 0 L 0.328125 -68.25 L 15.9375 -68.25 Z M 31.3125 -16.921875 "/></g></g><g transform="translate(124.124995, 219.374986)"><g><path d="M 19.5 0 L 5.90625 0 L 5.90625 -50.71875 L 19.5 -50.71875 Z M 5.109375 -63.84375 C 5.109375 -65.875 5.785156 -67.546875 7.140625 -68.859375 C 8.503906 -70.171875 10.359375 -70.828125 12.703125 -70.828125 C 15.015625 -70.828125 16.859375 -70.171875 18.234375 -68.859375 C 19.609375 -67.546875 20.296875 -65.875 20.296875 -63.84375 C 20.296875 -61.78125 19.597656 -60.09375 18.203125 -58.78125 C 16.816406 -57.46875 14.984375 -56.8125 12.703125 -56.8125 C 10.421875 -56.8125 8.582031 -57.46875 7.1875 -58.78125 C 5.800781 -60.09375 5.109375 -61.78125 5.109375 -63.84375 Z M 5.109375 -63.84375 "/></g></g><g transform="translate(149.578119, 219.374986)"><g><path d="M 3.09375 -25.828125 C 3.09375 -30.859375 4.0625 -35.34375 6 -39.28125 C 7.9375 -43.21875 10.722656 -46.265625 14.359375 -48.421875 C 18.003906 -50.578125 22.234375 -51.65625 27.046875 -51.65625 C 33.890625 -51.65625 39.472656 -49.5625 43.796875 -45.375 C 48.128906 -41.1875 50.546875 -35.5 51.046875 -28.3125 L 51.140625 -24.84375 C 51.140625 -17.0625 48.96875 -10.816406 44.625 -6.109375 C 40.28125 -1.410156 34.453125 0.9375 27.140625 0.9375 C 19.828125 0.9375 13.988281 -1.40625 9.625 -6.09375 C 5.269531 -10.78125 3.09375 -17.15625 3.09375 -25.21875 Z M 16.640625 -24.84375 C 16.640625 -20.03125 17.546875 -16.347656 19.359375 -13.796875 C 21.171875 -11.253906 23.765625 -9.984375 27.140625 -9.984375 C 30.421875 -9.984375 32.984375 -11.238281 34.828125 -13.75 C 36.671875 -16.269531 37.59375 -20.296875 37.59375 -25.828125 C 37.59375 -30.546875 36.671875 -34.203125 34.828125 -36.796875 C 32.984375 -39.390625 30.390625 -40.6875 27.046875 -40.6875 C 23.734375 -40.6875 21.171875 -39.394531 19.359375 -36.8125 C 17.546875 -34.238281 16.640625 -30.25 16.640625 -24.84375 Z M 16.640625 -24.84375 "/></g></g><g transform="translate(203.859366, 219.374986)"><g><path d="M 19.5 0 L 5.90625 0 L 5.90625 -72 L 19.5 -72 Z M 19.5 0 "/></g></g><g transform="translate(229.312489, 219.374986)"><g><path d="M 28.546875 0.9375 C 21.109375 0.9375 15.050781 -1.34375 10.375 -5.90625 C 5.707031 -10.46875 3.375 -16.546875 3.375 -24.140625 L 3.375 -25.453125 C 3.375 -30.546875 4.359375 -35.097656 6.328125 -39.109375 C 8.296875 -43.128906 11.082031 -46.222656 14.6875 -48.390625 C 18.300781 -50.566406 22.421875 -51.65625 27.046875 -51.65625 C 33.984375 -51.65625 39.441406 -49.46875 43.421875 -45.09375 C 47.410156 -40.71875 49.40625 -34.515625 49.40625 -26.484375 L 49.40625 -20.953125 L 17.109375 -20.953125 C 17.546875 -17.640625 18.863281 -14.984375 21.0625 -12.984375 C 23.269531 -10.984375 26.0625 -9.984375 29.4375 -9.984375 C 34.65625 -9.984375 38.734375 -11.875 41.671875 -15.65625 L 48.328125 -8.203125 C 46.296875 -5.328125 43.546875 -3.082031 40.078125 -1.46875 C 36.609375 0.132812 32.765625 0.9375 28.546875 0.9375 Z M 27 -40.6875 C 24.3125 -40.6875 22.128906 -39.78125 20.453125 -37.96875 C 18.785156 -36.15625 17.71875 -33.5625 17.25 -30.1875 L 36.09375 -30.1875 L 36.09375 -31.265625 C 36.03125 -34.265625 35.21875 -36.582031 33.65625 -38.21875 C 32.09375 -39.863281 29.875 -40.6875 27 -40.6875 Z M 27 -40.6875 "/></g></g><g transform="translate(281.20311, 219.374986)"><g><path d="M 21.421875 -63.1875 L 21.421875 -50.71875 L 30.09375 -50.71875 L 30.09375 -40.78125 L 21.421875 -40.78125 L 21.421875 -15.46875 C 21.421875 -13.59375 21.78125 -12.25 22.5 -11.4375 C 23.21875 -10.625 24.59375 -10.21875 26.625 -10.21875 C 28.125 -10.21875 29.453125 -10.328125 30.609375 -10.546875 L 30.609375 -0.28125 C 27.953125 0.53125 25.21875 0.9375 22.40625 0.9375 C 12.90625 0.9375 8.0625 -3.859375 7.875 -13.453125 L 7.875 -40.78125 L 0.46875 -40.78125 L 0.46875 -50.71875 L 7.875 -50.71875 L 7.875 -63.1875 Z M 21.421875 -63.1875 "/></g></g></g></svg>