<svg xmlns="http://www.w3.org/2000/svg" xmlns:xlink="http://www.w3.org/1999/xlink" width="140" zoomAndPan="magnify" viewBox="0 0 104.88 30.000001" height="40" preserveAspectRatio="xMidYMid meet" version="1.0"><defs><g/></defs><g fill="#ffffff" fill-opacity="1"><g transform="translate(23.642505, 21.739418)"><g><path d="M 7.09375 -3.828125 L 10.59375 -15.46875 L 14.140625 -15.46875 L 8.765625 0 L 5.4375 0 L 0.078125 -15.46875 L 3.609375 -15.46875 Z M 7.09375 -3.828125 "/></g></g><g transform="translate(37.866206, 21.739418)"><g><path d="M 4.421875 0 L 1.34375 0 L 1.34375 -11.484375 L 4.421875 -11.484375 Z M 1.15625 -14.46875 C 1.15625 -14.925781 1.304688 -15.300781 1.609375 -15.59375 C 1.921875 -15.894531 2.34375 -16.046875 2.875 -16.046875 C 3.394531 -16.046875 3.8125 -15.894531 4.125 -15.59375 C 4.4375 -15.300781 4.59375 -14.925781 4.59375 -14.46875 C 4.59375 -14 4.4375 -13.613281 4.125 -13.3125 C 3.8125 -13.019531 3.394531 -12.875 2.875 -12.875 C 2.363281 -12.875 1.945312 -13.019531 1.625 -13.3125 C 1.3125 -13.613281 1.15625 -14 1.15625 -14.46875 Z M 1.15625 -14.46875 "/></g></g><g transform="translate(43.634294, 21.739418)"><g><path d="M 0.703125 -5.859375 C 0.703125 -6.992188 0.921875 -8.003906 1.359375 -8.890625 C 1.796875 -9.785156 2.425781 -10.476562 3.25 -10.96875 C 4.082031 -11.457031 5.039062 -11.703125 6.125 -11.703125 C 7.675781 -11.703125 8.941406 -11.226562 9.921875 -10.28125 C 10.898438 -9.332031 11.445312 -8.046875 11.5625 -6.421875 L 11.59375 -5.625 C 11.59375 -3.863281 11.097656 -2.445312 10.109375 -1.375 C 9.128906 -0.3125 7.804688 0.21875 6.140625 0.21875 C 4.484375 0.21875 3.160156 -0.3125 2.171875 -1.375 C 1.191406 -2.4375 0.703125 -3.882812 0.703125 -5.71875 Z M 3.765625 -5.625 C 3.765625 -4.539062 3.96875 -3.707031 4.375 -3.125 C 4.789062 -2.550781 5.382812 -2.265625 6.15625 -2.265625 C 6.894531 -2.265625 7.472656 -2.546875 7.890625 -3.109375 C 8.304688 -3.679688 8.515625 -4.597656 8.515625 -5.859375 C 8.515625 -6.921875 8.304688 -7.742188 7.890625 -8.328125 C 7.472656 -8.921875 6.882812 -9.21875 6.125 -9.21875 C 5.375 -9.21875 4.789062 -8.925781 4.375 -8.34375 C 3.96875 -7.757812 3.765625 -6.851562 3.765625 -5.625 Z M 3.765625 -5.625 "/></g></g><g transform="translate(55.9353, 21.739418)"><g><path d="M 4.421875 0 L 1.34375 0 L 1.34375 -16.3125 L 4.421875 -16.3125 Z M 4.421875 0 "/></g></g><g transform="translate(61.703388, 21.739418)"><g><path d="M 6.46875 0.21875 C 4.78125 0.21875 3.40625 -0.296875 2.34375 -1.328125 C 1.289062 -2.367188 0.765625 -3.75 0.765625 -5.46875 L 0.765625 -5.765625 C 0.765625 -6.921875 0.988281 -7.953125 1.4375 -8.859375 C 1.882812 -9.773438 2.515625 -10.476562 3.328125 -10.96875 C 4.148438 -11.457031 5.082031 -11.703125 6.125 -11.703125 C 7.695312 -11.703125 8.929688 -11.207031 9.828125 -10.21875 C 10.734375 -9.226562 11.1875 -7.820312 11.1875 -6 L 11.1875 -4.75 L 3.875 -4.75 C 3.976562 -4 4.273438 -3.394531 4.765625 -2.9375 C 5.265625 -2.488281 5.898438 -2.265625 6.671875 -2.265625 C 7.847656 -2.265625 8.769531 -2.691406 9.4375 -3.546875 L 10.953125 -1.859375 C 10.492188 -1.203125 9.867188 -0.691406 9.078125 -0.328125 C 8.296875 0.0351562 7.425781 0.21875 6.46875 0.21875 Z M 6.125 -9.21875 C 5.507812 -9.21875 5.007812 -9.007812 4.625 -8.59375 C 4.25 -8.1875 4.007812 -7.601562 3.90625 -6.84375 L 8.171875 -6.84375 L 8.171875 -7.078125 C 8.160156 -7.765625 7.976562 -8.289062 7.625 -8.65625 C 7.269531 -9.03125 6.769531 -9.21875 6.125 -9.21875 Z M 6.125 -9.21875 "/></g></g><g transform="translate(73.462639, 21.739418)"><g><path d="M 4.859375 -14.3125 L 4.859375 -11.484375 L 6.8125 -11.484375 L 6.8125 -9.234375 L 4.859375 -9.234375 L 4.859375 -3.5 C 4.859375 -3.082031 4.9375 -2.78125 5.09375 -2.59375 C 5.257812 -2.40625 5.570312 -2.3125 6.03125 -2.3125 C 6.375 -2.3125 6.675781 -2.335938 6.9375 -2.390625 L 6.9375 -0.0625 C 6.332031 0.125 5.710938 0.21875 5.078125 0.21875 C 2.921875 0.21875 1.820312 -0.867188 1.78125 -3.046875 L 1.78125 -9.234375 L 0.109375 -9.234375 L 0.109375 -11.484375 L 1.78125 -11.484375 L 1.78125 -14.3125 Z M 4.859375 -14.3125 "/></g></g></g></svg>